HIERARCHY
ROOT Hips
{
	OFFSET 0.00000 0.00000 0.00000
	CHANNELS 6 Xposition Yposition Zposition Zrotation Yrotation Xrotation 
	JOINT LHipJoint
	{
		OFFSET 0 0 0
		CHANNELS 3 Zrotation Yrotation Xrotation
		JOINT LeftUpLeg
		{
			OFFSET 1.75344 -1.53157 0.77399
			CHANNELS 3 Zrotation Yrotation Xrotation
			JOINT LeftLeg
			{
				OFFSET 2.25415 -6.19323 0.00000
				CHANNELS 3 Zrotation Yrotation Xrotation
				JOINT LeftFoot
				{
					OFFSET 2.30342 -6.32861 0.00000
					CHANNELS 3 Zrotation Yrotation Xrotation
					JOINT LeftToeBase
					{
						OFFSET 0.10958 -0.30108 1.49206
						CHANNELS 3 Zrotation Yrotation Xrotation
						End Site
						{
							OFFSET 0.00000 -0.00000 0.77783
						}
					}
				}
			}
		}
	}
	JOINT RHipJoint
	{
		OFFSET 0 0 0
		CHANNELS 3 Zrotation Yrotation Xrotation
		JOINT RightUpLeg
		{
			OFFSET -1.81912 -1.53156 0.77399
			CHANNELS 3 Zrotation Yrotation Xrotation
			JOINT RightLeg
			{
				OFFSET -2.22882 -6.12365 0.00000
				CHANNELS 3 Zrotation Yrotation Xrotation
				JOINT RightFoot
				{
					OFFSET -2.21943 -6.09785 0.00000
					CHANNELS 3 Zrotation Yrotation Xrotation
					JOINT RightToeBase
					{
						OFFSET -0.18931 -0.52012 1.59379
						CHANNELS 3 Zrotation Yrotation Xrotation
						End Site
						{
							OFFSET -0.00000 -0.00000 0.84686
						}
					}
				}
			}
		}
	}
	JOINT LowerBack
	{
		OFFSET 0 0 0
		CHANNELS 3 Zrotation Yrotation Xrotation
		JOINT Spine
		{
			OFFSET -0.00200 1.66634 -0.14248
			CHANNELS 3 Zrotation Yrotation Xrotation
			JOINT Spine1
			{
				OFFSET -0.00875 1.64542 0.09514
				CHANNELS 3 Zrotation Yrotation Xrotation
				JOINT Neck
				{
					OFFSET 0 0 0
					CHANNELS 3 Zrotation Yrotation Xrotation
					JOINT Neck1
					{
						OFFSET 0.02257 1.59605 0.00839
						CHANNELS 3 Zrotation Yrotation Xrotation
						JOINT Head
						{
							OFFSET -0.10214 1.57530 -0.23335
							CHANNELS 3 Zrotation Yrotation Xrotation
							End Site
							{
								OFFSET -0.03588 1.60717 -0.08062
							}
						}
					}
				}
				JOINT LeftShoulder
				{
					OFFSET 0 0 0
					CHANNELS 3 Zrotation Yrotation Xrotation
					JOINT LeftArm
					{
						OFFSET 2.54983 1.10186 0.40078
						CHANNELS 3 Zrotation Yrotation Xrotation
						JOINT LeftForeArm
						{
							OFFSET 4.28840 -0.00000 0.00000
							CHANNELS 3 Zrotation Yrotation Xrotation
							JOINT LeftHand
							{
								OFFSET 3.06552 -0.00000 -0.00000
								CHANNELS 3 Zrotation Yrotation Xrotation
								JOINT LeftFingerBase
								{
									OFFSET 0 0 0
									CHANNELS 3 Zrotation Yrotation Xrotation
									JOINT LeftHandIndex1
									{
										OFFSET 0.75304 -0.00000 0.00000
										CHANNELS 3 Zrotation Yrotation Xrotation
										End Site
										{
											OFFSET 0.60712 -0.00000 0.00000
										}
									}
								}
								JOINT LThumb
								{
									OFFSET 0 0 0
									CHANNELS 3 Zrotation Yrotation Xrotation
									End Site
									{
										OFFSET 0.61639 -0.00000 0.61639
									}
								}
							}
						}
					}
				}
				JOINT RightShoulder
				{
					OFFSET 0 0 0
					CHANNELS 3 Zrotation Yrotation Xrotation
					JOINT RightArm
					{
						OFFSET -2.60909 1.35448 0.21802
						CHANNELS 3 Zrotation Yrotation Xrotation
						JOINT RightForeArm
						{
							OFFSET -4.52172 -0.00000 -0.00000
							CHANNELS 3 Zrotation Yrotation Xrotation
							JOINT RightHand
							{
								OFFSET -2.89140 -0.00000 0.00000
								CHANNELS 3 Zrotation Yrotation Xrotation
								JOINT RightFingerBase
								{
									OFFSET 0 0 0
									CHANNELS 3 Zrotation Yrotation Xrotation
									JOINT RightHandIndex1
									{
										OFFSET -0.68054 -0.00000 0.00000
										CHANNELS 3 Zrotation Yrotation Xrotation
										End Site
										{
											OFFSET -0.54867 -0.00000 0.00000
										}
									}
								}
								JOINT RThumb
								{
									OFFSET 0 0 0
									CHANNELS 3 Zrotation Yrotation Xrotation
									End Site
									{
										OFFSET -0.55705 -0.00000 0.55705
									}
								}
							}
						}
					}
				}
			}
		}
	}
}
MOTION
Frames: 5
Frame Time: .0083333
8.9288 12.8858 23.0966 -178.2200 0.0226 209.5320 0.0000 0.0000 0.0000 -7.8644 -18.2935 -73.1451 17.1364 19.8022 81.6008 4.1739 -5.7228 -37.6106 2.0832 -9.0372 -25.9119 0.0000 0.0000 0.0000 17.1590 16.4057 -69.6798 -16.5890 -19.7187 79.9818 -3.7417 -7.0971 -39.4465 -0.0072 0.5479 -1.5055 1.0586 0.6826 27.6002 0.4675 1.4890 -2.2165 -0.6891 0.6277 -17.3843 -5.8864 -2.4419 -6.4410 6.8915 -5.3635 -24.4110 3.5326 -4.0185 -6.0309 0.0000 0.0000 0.0000 -81.1451 19.7870 -18.8807 15.8866 -25.3667 -3.5973 -0.0000 -0.0000 18.3053 5.7421 -33.6725 -3.1911 -7.1250 0.0000 -0.0000 -14.7035 -2.8579 15.9420 0.0000 0.0000 0.0000 67.5098 -23.7062 -9.4656 -13.0791 21.4031 -2.4821 0.0000 0.0000 44.2922 -11.3437 -65.9882 10.3844 7.1250 -0.0000 -0.0000 102.1582 74.8459 117.9096
8.9432 12.8546 23.0884 -178.2890 -0.5442 209.1430 0.0000 0.0000 0.0000 -7.8294 -18.5310 -72.9726 17.2725 19.8207 82.0023 4.1515 -5.6270 -37.5178 2.1661 -9.2038 -26.4348 0.0000 0.0000 0.0000 17.4902 16.2307 -69.4818 -16.7926 -19.7515 80.5849 -3.6926 -8.1349 -39.7120 -0.0150 0.7907 -2.1731 1.3040 0.9246 27.4720 0.3700 1.5746 -2.0174 -0.9239 0.5193 -17.0638 -5.9329 -2.6456 -6.2828 7.0527 -5.6450 -24.7437 3.6175 -4.1744 -6.1392 0.0000 0.0000 0.0000 -82.9240 16.2284 -16.1112 15.6459 -25.0382 -3.4947 -0.0000 -0.0000 19.1069 4.5952 -34.8374 -2.6288 -7.1250 0.0000 -0.0000 -15.3785 -3.8509 16.9829 0.0000 0.0000 0.0000 69.8500 -19.0577 -8.1366 -12.4013 20.4037 -2.2402 0.0000 0.0000 45.8162 -12.9494 -66.7790 11.9317 7.1250 -0.0000 -0.0000 106.1994 74.8940 121.7274
8.9592 12.8300 23.0834 -178.3650 -1.1048 208.8240 0.0000 0.0000 0.0000 -7.7807 -18.7931 -72.8661 17.3628 19.8324 82.2685 4.0913 -5.3929 -37.2648 2.3203 -9.5037 -27.3840 0.0000 0.0000 0.0000 17.7283 16.1178 -69.3471 -16.9427 -19.7744 81.0288 -3.6377 -8.8169 -39.7960 -0.0076 0.5635 -1.5484 1.1385 1.0209 27.9185 0.4142 1.6772 -2.2580 -0.8375 0.5772 -17.5857 -6.1053 -2.8071 -6.5688 7.2787 -5.7692 -24.4334 3.6943 -4.2098 -5.9687 0.0000 -0.0000 0.0000 -84.7452 13.4124 -13.1081 15.5750 -24.9411 -3.4648 -0.0000 -0.0000 18.9100 5.4255 -35.2866 -3.1404 -7.1250 0.0000 -0.0000 -14.9586 -4.3767 16.6146 0.0000 -0.0000 0.0000 71.7333 -14.8835 -4.5976 -12.1280 19.9964 -2.1459 0.0000 0.0000 45.2234 -11.6645 -67.0015 10.7599 7.1250 -0.0000 -0.0000 105.6893 74.5658 121.6166
8.9771 12.8333 23.0792 -178.3390 -1.6676 208.4390 0.0000 0.0000 0.0000 -7.6491 -19.0185 -72.4797 17.3804 19.8347 82.3206 4.0363 -5.4513 -36.9901 2.3468 -9.5539 -27.5440 0.0000 0.0000 0.0000 18.0789 15.9901 -68.9007 -16.9929 -19.7818 81.1772 -3.6267 -9.1502 -39.9162 -0.0001 0.0542 -0.1490 1.1107 1.1016 27.4928 0.4430 1.7444 -1.8794 -0.8014 0.6124 -16.9126 -6.2136 -2.8821 -7.0683 7.6268 -5.8585 -24.5786 3.8181 -4.2968 -5.9115 -0.0000 -0.0000 0.0000 -86.2464 9.5361 -10.1167 15.3864 -24.6816 -3.3856 -0.0000 -0.0000 18.5108 6.7294 -35.9551 -3.9631 -7.1250 0.0000 -0.0000 -14.3068 -5.1786 16.0279 -0.0000 -0.0000 0.0000 73.5806 -9.6593 -0.2764 -12.0427 19.8687 -2.1168 0.0000 0.0000 44.2901 -8.1041 -66.4246 7.4356 7.1250 -0.0000 -0.0000 100.8296 74.0141 117.5725
8.9957 12.8520 23.0647 -178.3400 -2.1015 207.9650 0.0000 0.0000 0.0000 -7.6710 -19.1400 -71.7501 17.3369 19.8291 82.1922 4.0090 -5.7461 -36.8130 2.2793 -9.4251 -27.1345 0.0000 0.0000 0.0000 18.3694 15.8711 -68.1373 -16.9764 -19.7794 81.1282 -3.6064 -9.4600 -39.9835 -0.0012 -0.2228 0.6122 1.0997 1.2338 27.0403 0.4062 1.8994 -1.7517 -0.8862 0.6849 -16.5284 -6.2432 -3.0567 -6.8344 7.8434 -6.0345 -24.6598 3.9038 -4.3796 -5.9515 0.0000 0.0000 0.0000 -87.3275 6.5129 -6.1891 15.3533 -24.6359 -3.3718 -0.0000 -0.0000 17.5399 7.8189 -37.3195 -4.7590 -7.1250 0.0000 -0.0000 -13.8362 -6.6381 15.7856 0.0000 0.0000 0.0000 75.3310 -4.9074 4.9755 -12.3764 20.3667 -2.2316 0.0000 0.0000 41.5303 -7.9084 -66.7211 7.2718 7.1250 -0.0000 -0.0000 101.6209 73.8923 118.4846
